<svg xmlns="http://www.w3.org/2000/svg"  width="1rem" height="1rem" viewBox="0 0 24 24" >
<style type="text/css">
	.st2{fill:#808080;}
	.st3{fill:#808080;}
	.st4{fill:#808080;}
	.st5{fill:#808080;}
	.st6{fill:#808080;}
</style>

<path class="st2" d="M12.3,3.1l-1.8-1.8c1.3-0.5,2.8-0.2,3.8,0.9C12.4,2.9,12.6,3.9,12.3,3.1z"/>
  <path class="st3" d="M10.3,2.3c-1.3-0.5-2.8-0.2-3.8,0.9c-1,1-1.3,2.5-0.9,3.8L10.3,2.3z"/>
  <rect x="9.3" y="3.1" transform="matrix(0.7071 -0.7071 0.7071 0.7071 1.3094 8.3501)" class="st4" width="4.2" height="4.2"/>
  <path class="st5" d="M11.4,5c1.3,0.5,2.8,0.2,3.8-0.9c1-1,1.3-2.5,0.9-3.8L11.4,5z"/>
  <path class="st6" d="M9.1,4.5c1,1,2.5,1.3,3.8,0.9l-1.8-1.8C8.6,3.4,8.8,4.4,9.1,4.5z"/>
</svg>
